<svg data-v-d3f97b9e="" xmlns="http://www.w3.org/2000/svg" viewBox="0 0 160.6573018527923 60"><!----><!----><!----><g data-v-d3f97b9e="" id="aec260d0-3981-4a2e-9c16-a6c75789db36" fill="white" transform="matrix(5.377950360440165,0,0,5.377950360440165,0.717056573238537,-15.89184242795848)"><path d="M0.90 6.22L0.90 6.22L0.90 6.22Q0.71 6.17 0.51 6.05L0.51 6.05L0.51 6.05Q0.31 5.93 0.16 5.78L0.16 5.78L0.16 5.78Q0 5.62-0.08 5.43L-0.08 5.43L-0.08 5.43Q-0.16 5.24-0.12 5.02L-0.12 5.02L-0.12 5.02Q-0.04 4.57 0.40 4.17L0.40 4.17L0.40 4.17Q0.83 3.77 1.57 3.54L1.57 3.54L1.57 3.50L1.57 3.50Q1.59 3.35 1.77 3.19L1.77 3.19L1.77 3.19Q1.96 3.04 2.23 2.98L2.23 2.98L2.23 2.98Q2.49 2.93 2.60 2.98L2.60 2.98L2.60 2.98Q2.72 3.04 2.72 3.13L2.72 3.13L2.72 3.13Q2.72 3.16 2.71 3.19L2.71 3.19L2.71 3.19Q2.71 3.23 2.71 3.25L2.71 3.25L2.71 3.32L2.71 3.32Q3.38 3.27 4.20 3.36L4.20 3.36L4.20 3.36Q5.18 3.49 5.80 3.83L5.80 3.83L5.80 3.83Q6.41 4.17 6.73 4.61L6.73 4.61L6.73 4.61Q7.04 5.06 7.12 5.54L7.12 5.54L7.12 5.54Q7.19 6.02 7.11 6.41L7.11 6.41L7.11 6.41Q7.03 6.88 6.81 7.25L6.81 7.25L6.81 7.25Q6.59 7.63 6.29 7.92L6.29 7.92L6.29 7.92Q5.99 8.22 5.62 8.44L5.62 8.44L5.62 8.44Q5.25 8.65 4.84 8.80L4.84 8.80L4.84 8.80Q5.28 8.90 5.58 9.11L5.58 9.11L5.58 9.11Q5.89 9.32 6.08 9.61L6.08 9.61L6.08 9.61Q6.28 9.90 6.36 10.25L6.36 10.25L6.36 10.25Q6.44 10.61 6.41 10.98L6.41 10.98L6.41 10.98Q6.38 11.55 6.12 12.05L6.12 12.05L6.12 12.05Q5.85 12.55 5.40 12.92L5.40 12.92L5.40 12.92Q4.95 13.29 4.33 13.49L4.33 13.49L4.33 13.49Q3.71 13.70 2.95 13.67L2.95 13.67L2.79 13.67L2.79 13.67Q2.58 13.85 2.34 13.94L2.34 13.94L2.34 13.94Q2.11 14.03 1.89 14.07L1.89 14.07L1.89 14.07Q1.64 14.12 1.39 14.11L1.39 14.11L1.39 14.11Q1.39 14.01 1.40 13.91L1.40 13.91L1.40 13.91Q1.41 13.81 1.41 13.71L1.41 13.71L1.41 13.71Q1.41 13.60 1.42 13.49L1.42 13.49L1.42 13.49Q1.26 13.47 1.11 13.41L1.11 13.41L1.11 13.41Q0.97 13.37 0.83 13.32L0.83 13.32L0.83 13.32Q0.68 13.28 0.57 13.22L0.57 13.22L0.57 13.22Q0.52 13.14 0.49 13.02L0.49 13.02L0.49 13.02Q0.46 12.91 0.46 12.78L0.46 12.78L0.46 12.78Q0.45 12.65 0.51 12.48L0.51 12.48L0.51 12.48Q0.93 12.65 1.48 12.73L1.48 12.73L1.48 12.73Q1.50 12.03 1.52 11.07L1.52 11.07L1.52 11.07Q1.54 10.12 1.54 9.06L1.54 9.06L1.54 9.06Q1.54 7.88 1.55 6.73L1.55 6.73L1.55 6.73Q1.56 5.58 1.56 4.76L1.56 4.76L1.56 4.76Q1.16 4.96 0.94 5.32L0.94 5.32L0.94 5.32Q0.72 5.67 0.90 6.22ZM5.11 11.05L5.11 11.05L5.11 11.05Q5.17 10.45 4.94 10.08L4.94 10.08L4.94 10.08Q4.70 9.72 4.33 9.54L4.33 9.54L4.33 9.54Q3.95 9.35 3.51 9.31L3.51 9.31L3.51 9.31Q3.06 9.27 2.71 9.30L2.71 9.30L2.71 9.30Q2.73 10.43 2.75 11.35L2.75 11.35L2.75 11.35Q2.76 12.28 2.78 12.87L2.78 12.87L2.78 12.87Q3.20 12.88 3.60 12.77L3.60 12.77L3.60 12.77Q3.99 12.66 4.31 12.43L4.31 12.43L4.31 12.43Q4.63 12.20 4.85 11.85L4.85 11.85L4.85 11.85Q5.07 11.50 5.11 11.05ZM2.68 4.44L2.68 4.44L2.68 4.44Q2.65 5.14 2.65 6.10L2.65 6.10L2.65 6.10Q2.65 7.05 2.68 8.23L2.68 8.23L2.68 8.23Q2.68 8.34 2.68 8.44L2.68 8.44L2.68 8.44Q2.68 8.54 2.69 8.65L2.69 8.65L2.69 8.65Q3.19 8.61 3.72 8.42L3.72 8.42L3.72 8.42Q4.25 8.22 4.70 7.89L4.70 7.89L4.70 7.89Q5.14 7.56 5.43 7.12L5.43 7.12L5.43 7.12Q5.71 6.67 5.71 6.14L5.71 6.14L5.71 6.14Q5.71 5.73 5.50 5.41L5.50 5.41L5.50 5.41Q5.28 5.09 4.92 4.87L4.92 4.87L4.92 4.87Q4.55 4.65 4.08 4.54L4.08 4.54L4.08 4.54Q3.61 4.43 3.10 4.43L3.10 4.43L3.10 4.43Q2.99 4.43 2.89 4.43L2.89 4.43L2.89 4.43Q2.79 4.43 2.68 4.44ZM7.67 7.72L7.67 7.72L7.67 7.72Q7.67 7.64 7.89 7.55L7.89 7.55L7.89 7.55Q8.11 7.45 8.37 7.39L8.37 7.39L8.37 7.39Q8.64 7.33 8.87 7.32L8.87 7.32L8.87 7.32Q9.09 7.31 9.09 7.42L9.09 7.42L9.09 7.42Q9.09 7.63 9.06 8.00L9.06 8.00L9.06 8.00Q9.04 8.38 9.00 8.80L9.00 8.80L9.00 8.80Q8.96 9.21 8.91 9.63L8.91 9.63L8.91 9.63Q8.87 10.05 8.86 10.34L8.86 10.34L8.86 10.34Q8.83 10.64 8.80 10.99L8.80 10.99L8.80 10.99Q8.78 11.29 8.76 11.66L8.76 11.66L8.76 11.66Q8.75 12.03 8.76 12.41L8.76 12.41L8.76 12.41Q8.76 12.48 8.63 12.55L8.63 12.55L8.63 12.55Q8.49 12.62 8.33 12.65L8.33 12.65L8.33 12.65Q8.16 12.69 8.01 12.69L8.01 12.69L8.01 12.69Q7.86 12.69 7.85 12.63L7.85 12.63L7.85 12.63Q7.82 12.58 7.79 12.44L7.79 12.44L7.79 12.44Q7.77 12.30 7.74 12.05L7.74 12.05L7.74 12.05Q7.71 11.80 7.70 11.40L7.70 11.40L7.70 11.40Q7.68 10.99 7.71 10.42L7.71 10.42L7.71 10.42Q7.77 9.28 7.72 8.66L7.72 8.66L7.72 8.66Q7.68 8.04 7.67 7.72ZM8.63 5.00L8.63 5.00L8.63 5.00Q8.90 5.00 9.15 5.17L9.15 5.17L9.15 5.17Q9.39 5.33 9.39 5.61L9.39 5.61L9.39 5.61Q9.39 5.81 9.29 6.00L9.29 6.00L9.29 6.00Q9.19 6.19 9.04 6.34L9.04 6.34L9.04 6.34Q8.89 6.49 8.70 6.58L8.70 6.58L8.70 6.58Q8.50 6.67 8.34 6.67L8.34 6.67L8.34 6.67Q8.12 6.67 7.98 6.60L7.98 6.60L7.98 6.60Q7.85 6.52 7.77 6.42L7.77 6.42L7.77 6.42Q7.70 6.32 7.67 6.19L7.67 6.19L7.67 6.19Q7.64 6.07 7.64 5.96L7.64 5.96L7.64 5.96Q7.64 5.82 7.68 5.65L7.68 5.65L7.68 5.65Q7.72 5.48 7.83 5.34L7.83 5.34L7.83 5.34Q7.94 5.20 8.13 5.10L8.13 5.10L8.13 5.10Q8.33 5.00 8.63 5.00ZM8.29 6.28L8.29 6.28L8.29 6.28Q8.37 6.28 8.47 6.21L8.47 6.21L8.47 6.21Q8.57 6.15 8.66 6.07L8.66 6.07L8.66 6.07Q8.75 5.99 8.81 5.89L8.81 5.89L8.81 5.89Q8.87 5.80 8.87 5.73L8.87 5.73L8.87 5.73Q8.87 5.62 8.76 5.62L8.76 5.62L8.76 5.62Q8.70 5.62 8.59 5.67L8.59 5.67L8.59 5.67Q8.49 5.73 8.39 5.80L8.39 5.80L8.39 5.80Q8.30 5.88 8.24 5.97L8.24 5.97L8.24 5.97Q8.18 6.06 8.18 6.14L8.18 6.14L8.18 6.14Q8.18 6.28 8.29 6.28ZM12.20 9.97L12.20 9.97L12.20 9.97Q12.50 10.08 12.77 10.17L12.77 10.17L12.77 10.17Q13.04 10.27 13.25 10.40L13.25 10.40L13.25 10.40Q13.45 10.54 13.58 10.73L13.58 10.73L13.58 10.73Q13.70 10.91 13.70 11.18L13.70 11.18L13.70 11.18Q13.70 11.51 13.56 11.80L13.56 11.80L13.56 11.80Q13.41 12.09 13.14 12.30L13.14 12.30L13.14 12.30Q12.87 12.52 12.48 12.65L12.48 12.65L12.48 12.65Q12.09 12.78 11.61 12.78L11.61 12.78L11.61 12.78Q11.07 12.78 10.75 12.68L10.75 12.68L10.75 12.68Q10.42 12.58 10.24 12.44L10.24 12.44L10.24 12.44Q10.06 12.30 10.01 12.17L10.01 12.17L10.01 12.17Q9.95 12.03 9.95 11.95L9.95 11.95L9.95 11.95Q9.95 11.79 10.02 11.59L10.02 11.59L10.02 11.59Q10.09 11.39 10.28 11.16L10.28 11.16L10.28 11.16Q10.36 11.06 10.46 10.98L10.46 10.98L10.46 10.98Q10.65 10.81 10.84 10.77L10.84 10.77L10.84 10.77Q10.81 11.09 10.92 11.29L10.92 11.29L10.92 11.29Q11.02 11.48 11.19 11.59L11.19 11.59L11.19 11.59Q11.36 11.70 11.57 11.74L11.57 11.74L11.57 11.74Q11.79 11.79 11.98 11.79L11.98 11.79L11.98 11.79Q12.17 11.79 12.37 11.73L12.37 11.73L12.37 11.73Q12.56 11.68 12.73 11.59L12.73 11.59L12.73 11.59Q12.89 11.50 13.00 11.38L13.00 11.38L13.00 11.38Q13.10 11.27 13.10 11.13L13.10 11.13L13.10 11.13Q13.10 10.98 12.97 10.88L12.97 10.88L12.97 10.88Q12.85 10.79 12.67 10.73L12.67 10.73L12.67 10.73Q12.48 10.66 12.27 10.63L12.27 10.63L12.27 10.63Q12.06 10.60 11.87 10.55L11.87 10.55L11.87 10.55Q11.68 10.51 11.35 10.44L11.35 10.44L11.35 10.44Q11.03 10.36 10.73 10.20L10.73 10.20L10.73 10.20Q10.42 10.04 10.19 9.76L10.19 9.76L10.19 9.76Q9.97 9.49 9.97 9.04L9.97 9.04L9.97 9.04Q9.97 8.52 10.23 8.13L10.23 8.13L10.23 8.13Q10.50 7.74 10.89 7.47L10.89 7.47L10.89 7.47Q11.28 7.21 11.72 7.07L11.72 7.07L11.72 7.07Q12.15 6.93 12.50 6.93L12.50 6.93L12.50 6.93Q12.67 6.93 12.88 6.98L12.88 6.98L12.88 6.98Q13.08 7.03 13.26 7.14L13.26 7.14L13.26 7.14Q13.44 7.26 13.56 7.45L13.56 7.45L13.56 7.45Q13.67 7.64 13.67 7.94L13.67 7.94L13.67 7.94Q13.67 8.24 13.62 8.43L13.62 8.43L13.62 8.43Q13.58 8.61 13.49 8.72L13.49 8.72L13.49 8.72Q13.40 8.82 13.28 8.85L13.28 8.85L13.28 8.85Q13.15 8.87 12.99 8.87L12.99 8.87L12.99 8.87Q12.88 8.87 12.78 8.85L12.78 8.85L12.78 8.85Q12.70 8.82 12.61 8.79L12.61 8.79L12.61 8.79Q12.51 8.76 12.43 8.70L12.43 8.70L12.43 8.70Q12.56 8.53 12.64 8.38L12.64 8.38L12.64 8.38Q12.71 8.23 12.71 8.01L12.71 8.01L12.71 8.01Q12.71 7.82 12.61 7.67L12.61 7.67L12.61 7.67Q12.51 7.52 12.28 7.52L12.28 7.52L12.28 7.52Q12.03 7.52 11.81 7.62L11.81 7.62L11.81 7.62Q11.58 7.71 11.41 7.88L11.41 7.88L11.41 7.88Q11.24 8.04 11.14 8.25L11.14 8.25L11.14 8.25Q11.03 8.46 11.03 8.71L11.03 8.71L11.03 8.71Q11.03 9.08 11.31 9.41L11.31 9.41L11.31 9.41Q11.59 9.73 12.20 9.97ZM19.63 6.48L19.63 6.48L19.63 6.48Q19.48 6.45 19.23 6.43L19.23 6.43L19.23 6.43Q18.98 6.40 18.72 6.38L18.72 6.38L18.72 6.38Q18.42 6.37 18.07 6.37L18.07 6.37L18.07 6.37Q17.73 6.34 17.22 6.36L17.22 6.36L17.22 6.36Q16.71 6.38 16.15 6.38L16.15 6.38L16.15 6.38Q16.13 6.74 16.10 7.11L16.10 7.11L16.10 7.11Q16.06 7.48 16.04 7.83L16.04 7.83L16.04 7.83Q15.97 8.49 15.92 9.17L15.92 9.17L15.92 9.17Q15.87 9.86 15.87 10.47L15.87 10.47L15.87 10.47Q15.87 11.09 15.95 11.59L15.95 11.59L15.95 11.59Q16.02 12.09 16.23 12.37L16.23 12.37L16.23 12.37Q16.06 12.50 15.87 12.56L15.87 12.56L15.87 12.56Q15.68 12.62 15.53 12.65L15.53 12.65L15.53 12.65Q15.35 12.69 15.18 12.69L15.18 12.69L15.18 12.69Q15.01 12.69 14.90 12.58L14.90 12.58L14.90 12.58Q14.79 12.47 14.78 12.20L14.78 12.20L14.78 12.20Q14.75 11.73 14.77 11.26L14.77 11.26L14.77 11.26Q14.79 10.79 14.83 10.27L14.83 10.27L14.83 10.27Q14.86 9.75 14.90 9.15L14.90 9.15L14.90 9.15Q14.94 8.56 14.98 7.85L14.98 7.85L14.98 7.85Q15.03 7.11 15.03 6.41L15.03 6.41L15.03 6.41Q14.51 6.43 14.15 6.43L14.15 6.43L14.15 6.43Q13.79 6.43 13.75 6.41L13.75 6.41L13.75 6.41Q13.71 6.38 13.66 6.29L13.66 6.29L13.66 6.29Q13.60 6.21 13.51 6.04L13.51 6.04L13.51 6.04Q13.43 5.88 13.29 5.58L13.29 5.58L13.29 5.58Q13.55 5.58 13.86 5.58L13.86 5.58L13.86 5.58Q14.16 5.58 14.42 5.56L14.42 5.56L14.42 5.56Q14.72 5.55 15.03 5.54L15.03 5.54L15.03 5.54Q15.01 5.32 15.01 5.07L15.01 5.07L15.01 5.07Q15.00 4.88 15.00 4.64L15.00 4.64L15.00 4.64Q15.00 4.40 14.98 4.20L14.98 4.20L14.98 4.20Q14.98 4.12 15.18 4.00L15.18 4.00L15.18 4.00Q15.38 3.88 15.61 3.79L15.61 3.79L15.61 3.79Q15.85 3.69 16.04 3.66L16.04 3.66L16.04 3.66Q16.24 3.64 16.24 3.76L16.24 3.76L16.24 3.76Q16.24 3.88 16.24 4.35L16.24 4.35L16.24 4.35Q16.23 4.83 16.20 5.50L16.20 5.50L16.20 5.50Q16.34 5.50 16.41 5.48L16.41 5.48L16.41 5.48Q17.13 5.46 17.58 5.42L17.58 5.42L17.58 5.42Q18.02 5.39 18.31 5.41L18.31 5.41L18.31 5.41Q18.59 5.44 18.81 5.55L18.81 5.55L18.81 5.55Q19.03 5.66 19.30 5.91L19.30 5.91L19.30 5.91Q19.40 5.99 19.47 6.08L19.47 6.08L19.47 6.08Q19.54 6.17 19.58 6.27L19.58 6.27L19.58 6.27Q19.63 6.37 19.63 6.48ZM21.04 8.37L21.04 8.37L21.04 8.37Q21.04 8.56 20.94 8.76L20.94 8.76L20.94 8.76Q20.84 8.96 20.69 9.13L20.69 9.13L20.69 9.13Q20.54 9.31 20.35 9.44L20.35 9.44L20.35 9.44Q20.17 9.57 20.00 9.60L20.00 9.60L20.00 9.60Q20.11 9.17 20.07 8.94L20.07 8.94L20.07 8.94Q20.03 8.71 19.93 8.60L19.93 8.60L19.93 8.60Q19.82 8.48 19.66 8.46L19.66 8.46L19.66 8.46Q19.41 8.46 19.19 8.74L19.19 8.74L19.19 8.74Q18.96 9.02 18.80 9.43L18.80 9.43L18.80 9.43Q18.63 9.83 18.54 10.29L18.54 10.29L18.54 10.29Q18.44 10.75 18.44 11.12L18.44 11.12L18.44 11.12Q18.43 11.38 18.46 11.62L18.46 11.62L18.46 11.62Q18.47 11.83 18.50 12.04L18.50 12.04L18.50 12.04Q18.54 12.26 18.61 12.39L18.61 12.39L18.61 12.39Q18.53 12.46 18.34 12.55L18.34 12.55L18.34 12.55Q18.16 12.65 17.96 12.67L17.96 12.67L17.96 12.67Q17.76 12.70 17.60 12.61L17.60 12.61L17.60 12.61Q17.45 12.51 17.43 12.20L17.43 12.20L17.43 12.20Q17.40 11.89 17.40 11.52L17.40 11.52L17.40 11.52Q17.39 11.14 17.40 10.77L17.40 10.77L17.40 10.77Q17.40 10.39 17.42 10.02L17.42 10.02L17.42 10.02Q17.43 9.65 17.46 9.34L17.46 9.34L17.46 9.34Q17.49 8.74 17.49 8.41L17.49 8.41L17.49 8.41Q17.49 8.08 17.47 7.78L17.47 7.78L17.47 7.78Q17.47 7.72 17.66 7.62L17.66 7.62L17.66 7.62Q17.84 7.52 18.07 7.44L18.07 7.44L18.07 7.44Q18.29 7.36 18.48 7.34L18.48 7.34L18.48 7.34Q18.68 7.33 18.68 7.42L18.68 7.42L18.68 7.42Q18.68 7.57 18.64 8.02L18.64 8.02L18.64 8.02Q18.61 8.46 18.55 8.94L18.55 8.94L18.55 8.94Q18.65 8.68 18.81 8.38L18.81 8.38L18.81 8.38Q18.96 8.08 19.17 7.82L19.17 7.82L19.17 7.82Q19.37 7.56 19.63 7.39L19.63 7.39L19.63 7.39Q19.89 7.22 20.21 7.22L20.21 7.22L20.21 7.22Q20.45 7.22 20.61 7.37L20.61 7.37L20.61 7.37Q20.77 7.52 20.86 7.71L20.86 7.71L20.86 7.71Q20.96 7.90 21 8.09L21 8.09L21 8.09Q21.04 8.29 21.04 8.37ZM25.25 10.21L25.25 10.21L25.25 10.21Q25.22 10.75 25.07 11.20L25.07 11.20L25.07 11.20Q24.91 11.65 24.64 11.98L24.64 11.98L24.64 11.98Q24.36 12.32 23.99 12.51L23.99 12.51L23.99 12.51Q23.61 12.70 23.16 12.71L23.16 12.71L23.16 12.71Q22.76 12.73 22.42 12.52L22.42 12.52L22.42 12.52Q22.07 12.32 21.81 11.95L21.81 11.95L21.81 11.95Q21.55 11.58 21.42 11.07L21.42 11.07L21.42 11.07Q21.29 10.55 21.34 9.95L21.34 9.95L21.34 9.95Q21.38 9.26 21.60 8.76L21.60 8.76L21.60 8.76Q21.82 8.26 22.07 7.93L22.07 7.93L22.07 7.93Q22.31 7.60 22.52 7.44L22.52 7.44L22.52 7.44Q22.74 7.29 22.79 7.26L22.79 7.26L22.79 7.26Q22.89 7.22 22.97 7.24L22.97 7.24L22.97 7.24Q23.05 7.26 23.15 7.29L23.15 7.29L23.15 7.29Q23.17 7.30 23.20 7.36L23.20 7.36L23.20 7.36Q23.26 7.45 23.27 7.71L23.27 7.71L23.27 7.71Q23.34 7.56 23.45 7.46L23.45 7.46L23.45 7.46Q23.56 7.37 23.67 7.33L23.67 7.33L23.67 7.33Q23.80 7.27 23.94 7.26L23.94 7.26L23.94 7.26Q24.04 7.25 24.27 7.41L24.27 7.41L24.27 7.41Q24.51 7.57 24.74 7.93L24.74 7.93L24.74 7.93Q24.96 8.29 25.13 8.85L25.13 8.85L25.13 8.85Q25.29 9.42 25.25 10.21ZM24.32 10.05L24.32 10.05L24.32 10.05Q24.34 9.72 24.30 9.39L24.30 9.39L24.30 9.39Q24.27 9.05 24.19 8.77L24.19 8.77L24.19 8.77Q24.12 8.49 24.01 8.32L24.01 8.32L24.01 8.32Q23.90 8.15 23.79 8.15L23.79 8.15L23.79 8.15Q23.67 8.18 23.52 8.27L23.52 8.27L23.52 8.27Q23.39 8.35 23.24 8.53L23.24 8.53L23.24 8.53Q23.09 8.71 22.96 9.04L22.96 9.04L22.96 9.04Q22.94 9.00 22.93 8.89L22.93 8.89L22.93 8.89Q22.91 8.79 22.91 8.63L22.91 8.63L22.91 8.63Q22.90 8.48 22.93 8.20L22.93 8.20L22.93 8.20Q22.74 8.44 22.63 8.75L22.63 8.75L22.63 8.75Q22.53 9.06 22.48 9.35L22.48 9.35L22.48 9.35Q22.42 9.69 22.39 10.04L22.39 10.04L22.39 10.04Q22.38 10.40 22.43 10.76L22.43 10.76L22.43 10.76Q22.48 11.12 22.59 11.39L22.59 11.39L22.59 11.39Q22.71 11.66 22.87 11.83L22.87 11.83L22.87 11.83Q23.04 11.99 23.27 11.98L23.27 11.98L23.27 11.98Q23.50 11.96 23.68 11.79L23.68 11.79L23.68 11.79Q23.86 11.61 23.99 11.33L23.99 11.33L23.99 11.33Q24.13 11.06 24.21 10.72L24.21 10.72L24.21 10.72Q24.29 10.38 24.32 10.05ZM27.82 12.71L27.82 12.71L27.82 12.71Q26.87 12.71 26.35 12.07L26.35 12.07L26.35 12.07Q25.83 11.43 25.83 10.39L25.83 10.39L25.83 10.39Q25.83 9.67 26.04 9.03L26.04 9.03L26.04 9.03Q26.25 8.39 26.61 7.93L26.61 7.93L26.61 7.93Q26.96 7.46 27.43 7.20L27.43 7.20L27.43 7.20Q27.90 6.93 28.42 6.93L28.42 6.93L28.42 6.93Q28.93 6.93 29.29 7.29L29.29 7.29L29.29 7.29Q29.64 7.66 29.64 8.33L29.64 8.33L29.64 8.33Q29.64 8.76 29.45 9.19L29.45 9.19L29.45 9.19Q29.26 9.63 28.95 9.96L28.95 9.96L28.95 9.96Q28.64 10.29 28.27 10.50L28.27 10.50L28.27 10.50Q27.90 10.71 27.56 10.71L27.56 10.71L27.56 10.71Q27.34 10.71 27.19 10.65L27.19 10.65L27.19 10.65Q27.04 10.60 26.92 10.49L26.92 10.49L26.92 10.49Q26.96 11.27 27.26 11.57L27.26 11.57L27.26 11.57Q27.56 11.88 28.04 11.88L28.04 11.88L28.04 11.88Q28.37 11.88 28.62 11.74L28.62 11.74L28.62 11.74Q28.88 11.61 29.05 11.43L29.05 11.43L29.05 11.43Q29.23 11.25 29.34 11.07L29.34 11.07L29.34 11.07Q29.45 10.88 29.49 10.79L29.49 10.79L29.49 10.79Q29.53 10.71 29.63 10.71L29.63 10.71L29.63 10.71Q29.74 10.71 29.74 10.87L29.74 10.87L29.74 10.87Q29.74 11.02 29.63 11.33L29.63 11.33L29.63 11.33Q29.53 11.63 29.30 11.94L29.30 11.94L29.30 11.94Q29.07 12.25 28.70 12.48L28.70 12.48L28.70 12.48Q28.34 12.71 27.82 12.71ZM28.45 7.52L28.45 7.52L28.45 7.52Q28.37 7.52 28.14 7.69L28.14 7.69L28.14 7.69Q27.92 7.86 27.67 8.19L27.67 8.19L27.67 8.19Q27.41 8.52 27.20 8.98L27.20 8.98L27.20 8.98Q26.99 9.43 26.93 10.01L26.93 10.01L26.93 10.01Q27.75 9.82 28.23 9.41L28.23 9.41L28.23 9.41Q28.71 9.00 28.71 8.20L28.71 8.20L28.71 8.20Q28.71 7.81 28.62 7.66L28.62 7.66L28.62 7.66Q28.52 7.52 28.45 7.52Z"></path></g><!----><!----></svg>