<svg data-v-29081953="" xmlns="http://www.w3.org/2000/svg" viewBox="0 0 300 300"><!----><defs data-v-29081953=""><!----></defs><rect data-v-29081953="" fill="#FDEEEE" x="0" y="0" width="300px" height="300px" class="logo-background-square"></rect><defs data-v-29081953=""><!----></defs><g data-v-29081953="" id="29a12259-88e3-47be-b237-3506c9e75b0e" fill="#361414" transform="matrix(3.0285643750910496,0,0,3.0285643750910496,111.41862389834456,119.72949941755665)"><path d="M2.10 14.31L2.10 7.59L1.96 7.45L1.96 7.45Q1.83 7.32 1.67 7.53L1.67 7.53L1.67 7.53Q1.32 7.97 1.22 8.05L1.22 8.05L1.22 8.05Q0.84 8.36 0.28 8.36L0.28 8.36L0.28 8.15L0.28 8.15Q0.28 7.95 1.12 6.61L1.12 6.61L1.12 6.61Q1.37 6.20 2.03 6.09L2.03 6.09L3.08 5.91L3.08 5.91Q4.03 5.53 5.04 4.93L5.04 4.93L5.24 4.93L5.24 4.93Q5.24 5.29 4.90 5.63L4.90 5.63L4.90 5.63Q5.94 5.59 6.72 5.63L6.72 5.63L6.72 5.63Q8.69 5.74 8.69 6.89L8.69 6.89L8.69 6.89Q8.69 7.59 7.42 8.99L7.42 8.99L7.42 9.13L7.42 9.13Q9.25 10.28 9.25 12.00L9.25 12.00L9.25 12.00Q9.25 13.47 7.88 14.62L7.88 14.62L7.88 14.62Q6.57 15.72 5.07 15.72L5.07 15.72L5.07 15.72Q4.70 15.72 4.00 15.57L4.00 15.57L4.00 15.57Q3.29 15.41 2.93 15.41L2.93 15.41L2.93 15.41Q2.73 15.41 2.30 15.66L2.30 15.66L2.30 15.66Q1.86 15.90 1.65 15.90L1.65 15.90L1.65 15.90Q1.65 15.74 1.68 15.71L1.68 15.71L1.82 15.43L1.82 15.43Q2.10 14.49 2.10 14.31L2.10 14.31ZM4.33 12.22L4.33 12.22L4.33 12.22Q4.33 14.17 5.81 14.17L5.81 14.17L5.81 14.17Q6.48 14.17 6.97 13.87L6.97 13.87L6.97 13.87Q7.56 13.52 7.56 12.91L7.56 12.91L7.56 12.91Q7.56 11.98 6.59 11.19L6.59 11.19L6.59 11.19Q5.63 10.39 4.69 10.39L4.69 10.39L4.62 10.39L4.62 10.39Q4.33 11.28 4.33 12.22ZM4.33 8.15L4.33 8.15L4.33 8.15Q4.33 9.42 4.69 9.42L4.69 9.42L4.69 9.42Q5.15 9.42 5.73 8.93L5.73 8.93L5.73 8.93Q6.31 8.43 6.31 7.97L6.31 7.97L6.31 7.97Q6.31 7.38 5.85 7.04L5.85 7.04L5.85 7.04Q5.45 6.75 4.83 6.75L4.83 6.75L4.83 6.75Q4.33 6.75 4.33 8.15ZM10.93 14.32L10.93 10.99L10.93 10.99Q10.75 10.99 10.39 11.14L10.39 11.14L10.39 11.14Q10.04 11.28 9.86 11.28L9.86 11.28L9.86 11.28Q9.86 10.40 11.34 9.45L11.34 9.45L11.34 9.45Q12.71 8.57 13.62 8.57L13.62 8.57L13.62 8.57Q13.62 8.86 13.17 9.84L13.17 9.84L13.17 10.36L13.17 10.36Q13.17 10.37 13.16 10.72L13.16 10.72L13.16 10.72Q13.16 10.81 13.16 10.89L13.16 10.89L13.16 10.89Q13.16 11.76 13.17 11.94L13.17 11.94L13.17 11.94Q13.22 12.50 13.31 12.50L13.31 12.50L13.59 12.50L15.13 11.52L15.13 11.52Q15.16 11.51 15.20 11.51L15.20 11.51L15.20 11.51Q15.43 11.51 15.43 12.17L15.43 12.17L15.43 12.17Q15.43 12.98 14.11 14.22L14.11 14.22L14.11 14.22Q12.78 15.46 11.96 15.46L11.96 15.46L11.96 15.46Q10.93 15.46 10.93 14.32L10.93 14.32ZM11.93 6.48L11.93 6.48L11.93 6.20L11.93 6.20Q11.93 6.10 11.91 6.01L11.91 6.01L11.91 5.92L11.91 5.92Q11.89 5.88 11.65 5.74L11.65 5.74L11.65 5.74Q11.48 5.64 11.48 5.50L11.48 5.50L11.48 5.50Q11.48 5.53 11.49 5.36L11.49 5.36L12.59 4.59L12.59 4.59Q13.37 4.09 13.89 4.09L13.89 4.09L13.89 4.09Q14.15 4.09 14.15 4.45L14.15 4.45L14.15 4.45Q14.15 5.74 12.47 7.60L12.47 7.60L12.47 7.60Q11.72 8.44 11.63 8.44L11.63 8.44L11.31 8.44L11.31 8.44Q11.31 8.15 11.62 7.48L11.62 7.48L11.62 7.48Q11.93 6.82 11.93 6.48ZM20.59 13.01L20.59 13.01L20.59 13.01Q20.59 12.14 19.60 11.52L19.60 11.52L19.60 11.52Q18.31 10.71 18.42 10.02L18.42 10.02L18.42 10.02Q18.48 9.70 18.89 9.35L18.89 9.35L18.89 9.35Q19.36 9.02 19.49 8.92L19.49 8.92L19.49 8.92Q19.78 8.67 19.82 8.44L19.82 8.44L19.82 8.44Q19.89 8.05 19.29 8.05L19.29 8.05L19.29 8.05Q18.30 8.05 17.15 8.82L17.15 8.82L17.15 8.82Q15.90 9.66 15.90 10.61L15.90 10.61L15.90 10.61Q15.90 11.28 16.72 11.83L16.72 11.83L16.72 11.83Q17.70 12.49 17.70 13.23L17.70 13.23L17.70 13.23Q17.70 14.08 16.66 14.66L16.66 14.66L16.66 14.66Q16.03 15.01 15.96 15.33L15.96 15.33L15.96 15.33Q15.88 15.75 16.77 15.75L16.77 15.75L16.77 15.75Q18.03 15.75 19.22 15.02L19.22 15.02L19.22 15.02Q20.59 14.20 20.59 13.01ZM21.48 9.46L21.48 9.46L21.48 9.14L21.48 9.14Q22.83 8.54 23.58 7.88L23.58 7.88L24.98 6.62L25.26 6.62L25.26 8.44L25.40 8.58L25.40 8.58Q25.80 8.60 25.90 8.60L25.90 8.60L25.90 8.60Q26.43 8.60 27.48 8.50L27.48 8.50L27.48 8.50Q28.53 8.41 29.06 8.41L29.06 8.41L29.06 8.41Q29.06 8.83 28.15 9.60L28.15 9.60L28.15 9.60Q27.36 10.28 26.94 10.40L26.94 10.40L26.94 10.40Q26.73 10.46 26.10 10.51L26.10 10.51L26.10 10.51Q25.47 10.57 25.26 10.54L25.26 10.54L25.12 10.68L25.12 10.68Q25.09 10.77 25.09 11.52L25.09 11.52L25.09 11.52Q25.09 11.65 25.07 11.91L25.07 11.91L25.07 11.91Q25.05 12.18 25.05 12.31L25.05 12.31L25.05 12.31Q25.05 13.40 25.54 13.40L25.54 13.40L25.54 13.40Q25.76 13.40 25.82 13.34L25.82 13.34L27.22 11.94L27.61 11.94L27.61 11.94Q27.61 13.13 26.78 14.25L26.78 14.25L26.78 14.25Q25.87 15.48 24.77 15.48L24.77 15.48L24.77 15.48Q24.21 15.48 23.95 15.38L23.95 15.38L23.95 15.38Q23.69 15.27 23.30 14.88L23.30 14.88L23.30 14.88Q23.18 14.77 22.93 14.38L22.93 14.38L22.93 14.38Q22.67 13.99 22.67 13.90L22.67 13.90L22.67 9.84L22.67 9.84Q22.67 9.79 22.53 9.68L22.53 9.68L22.53 9.68Q22.39 9.58 22.32 9.56L22.32 9.56L22.32 9.56Q21.87 9.46 21.48 9.46ZM29.71 15.23L29.71 15.23L29.71 15.16L29.85 14.74L29.85 14.74Q29.88 14.64 29.99 14.18L29.99 14.18L29.99 10.12L29.99 10.12Q29.89 9.84 29.85 9.56L29.85 9.56L29.85 9.28L29.85 9.28Q30.62 8.82 31.53 8.30L31.53 8.30L31.53 8.30Q32.37 7.83 32.65 7.83L32.65 7.83L32.65 8.57L32.79 8.57L32.79 8.57Q32.91 8.58 32.93 8.58L32.93 8.58L34.19 8.44L34.19 8.44Q34.99 8.61 35.31 8.72L35.31 8.72L35.31 9.00L35.31 9.00Q33.88 9.13 32.65 10.68L32.65 10.68L32.51 11.10L32.51 11.10Q32.37 11.31 32.30 11.38L32.30 11.38L32.30 14.04L30.13 15.44L29.99 15.46L29.99 15.46Q29.71 15.46 29.71 15.23ZM35.76 12.45L35.76 12.45L35.76 12.45Q35.76 10.70 36.83 9.34L36.83 9.34L36.83 9.34Q37.98 7.87 39.69 7.87L39.69 7.87L39.69 7.87Q41.08 7.87 41.76 8.85L41.76 8.85L41.76 8.85Q42.36 9.70 42.36 11.13L42.36 11.13L42.36 11.13Q42.36 12.68 41.43 14L41.43 14L41.43 14Q40.39 15.46 38.85 15.46L38.85 15.46L38.85 15.46Q37.70 15.46 36.73 14.52L36.73 14.52L36.73 14.52Q35.76 13.58 35.76 12.45ZM37.70 11.28L37.70 11.28L37.70 11.28Q37.70 12.46 39.27 13.76L39.27 13.76L39.45 13.76L39.45 13.76Q39.59 13.78 39.62 13.78L39.62 13.78L39.62 13.78Q40.11 13.78 40.35 13.26L40.35 13.26L40.35 13.26Q40.53 12.87 40.53 12.31L40.53 12.31L40.53 12.31Q40.53 11.34 40.22 10.58L40.22 10.58L40.22 10.58Q39.79 9.53 38.98 9.53L38.98 9.53L38.98 9.53Q38.63 9.53 38.44 10.04L38.44 10.04L38.44 10.04Q38.39 10.30 38.25 10.84L38.25 10.84L38.25 10.84Q38.12 11.28 37.70 11.28ZM43.13 12.82L43.13 12.82L43.13 12.82Q43.13 11.07 44.47 9.75L44.47 9.75L44.47 9.75Q45.81 8.43 47.56 8.43L47.56 8.43L47.56 8.43Q48.22 8.43 48.49 8.68L48.49 8.68L48.49 8.68Q48.76 8.93 48.76 9.58L48.76 9.58L48.76 9.58Q48.76 10.50 47.71 11.28L47.71 11.28L47.71 11.28Q46.83 11.82 45.95 12.36L45.95 12.36L45.81 12.50L45.81 12.50Q45.81 12.53 45.79 12.57L45.79 12.57L45.79 12.57Q45.79 12.80 46.12 13.05L46.12 13.05L46.12 13.05Q46.38 13.26 46.65 13.34L46.65 13.34L46.72 13.34L46.72 13.34Q47.14 13.34 48.01 12.69L48.01 12.69L48.01 12.69Q48.87 12.04 49.06 12.04L49.06 12.04L49.06 12.04Q49.06 13.23 47.82 14.34L47.82 14.34L47.82 14.34Q46.59 15.46 45.39 15.46L45.39 15.46L45.39 15.46Q44.34 15.46 43.71 14.64L43.71 14.64L43.71 14.64Q43.13 13.90 43.13 12.82ZM45.67 10.12L45.67 10.12L45.67 10.12Q45.16 10.81 45.16 11.56L45.16 11.56L45.16 11.56Q45.44 11.56 45.84 11.14L45.84 11.14L45.84 11.14Q46.24 10.71 46.24 10.42L46.24 10.42L46.24 10.42Q46.24 10.11 45.88 10.11L45.88 10.11L45.78 10.11L45.78 10.11Q45.68 10.12 45.67 10.12Z"></path></g><defs data-v-29081953=""><linearGradient data-v-29081953="" gradientTransform="rotate(25)" id="516bb855-c872-4554-8cbc-dff7495c817c" x1="0%" y1="0%" x2="100%" y2="0%"><stop data-v-29081953="" offset="0%" stop-color="#F00079" stop-opacity="1"></stop><stop data-v-29081953="" offset="100%" stop-color="#F2A041" stop-opacity="1"></stop></linearGradient></defs><g data-v-29081953="" id="f38d1647-5497-4c9d-94b1-429fec6cbfba" stroke="none" fill="url(#516bb855-c872-4554-8cbc-dff7495c817c)" transform="matrix(0.6019903364073883,0,0,0.6019903364073883,39.533899813903155,119.90084687370532)"><path d="M99.154 60.154c-.307 6.914-7.924 11.564-9.791 18.098-1.846 6.451-2.76 16.438-11.053 16.036-3.406-.167-7.979 1.371-10.479-1.433-2.151-2.41-2.396-6.486-3.437-9.387-1.188-3.306-.91-6.867-2.75-10.039-.666-1.152-2.576-2.843-2.816-4.103 0 0-1.559-6.017-2.223-7.347-.871-1.75-1.682-2.846-1.437-5.033.196-1.764 1.913-3.271 2.071-4.576.236-1.949-2.266-2.804-1.803-4.782 2.041-.363 2.779.679 3.916 1.976.676.772.401 1.024 1.316 1.667.504.353 1.296.125 1.891.619 1.979 1.643 2.533 5.985 3.145 8.308.423 1.604 1.277 3.159 1.615 4.806.377 1.842.188 3.375 1.547 4.873 4.021 4.434 4.174-2.429 4.174-5.104 0-4.029-2.021-19.623 3.859-19.505.031-1.577-1.356-7.299 1.873-6.613 2.134.453 1.635 5.014.939 6.374 5.487.49 3.229 14.105 2.73 17.695-.256 1.858-3.047 8.285.904 8.463 2.229.104 4.101-5.071 5.213-6.687.873-1.269 1.654-2.526 2.744-3.666 1.34-1.403 3.297-1.724 4.418-2.927.621-.665 1.48-4.09 3.271-2.594.393.331.176 4.627.163 4.881zM1.75 31.169c1.834 6.672 10.292 9.52 13.561 15.475 3.229 5.883 6.333 15.418 14.331 13.188 3.286-.918 8.086-.432 9.904-3.721 1.562-2.825.896-6.854 1.27-9.913.424-3.487-.634-6.898.454-10.399.395-1.271 1.884-3.341 1.839-4.623 0 0 .187-6.214.538-7.658.462-1.898 1.009-3.147.286-5.226-.583-1.675-2.592-2.767-3.036-4.003-.662-1.847 1.587-3.236.699-5.062-2.07.098-2.561 1.278-3.381 2.794-.488.903-.166 1.088-.916 1.917-.413.456-1.235.409-1.706 1.022-1.564 2.041-1.144 6.4-1.225 8.799-.057 1.657-.545 3.363-.509 5.043.04 1.878.565 3.333-.428 5.095-2.94 5.213-4.609-1.444-5.202-4.05-.893-3.93-2.378-19.582-8.087-18.165-.379-1.532-.294-7.419-3.292-6.035-1.981.916-.482 5.252.496 6.424-5.242 1.694-.021 14.47 1.259 17.861.662 1.755 4.809 7.403.994 8.454-2.151.592-5.122-4.04-6.564-5.367-1.133-1.042-2.174-2.097-3.488-2.966-1.62-1.072-3.598-.95-4.958-1.875-.752-.51-2.35-3.659-3.763-1.804-.308.407.857 4.55.924 4.795z"></path></g><!----></svg>