<svg data-v-29081953="" xmlns="http://www.w3.org/2000/svg" viewBox="0 0 300 300"><!----><defs data-v-29081953=""><!----></defs><rect data-v-29081953="" fill="#FDEEEE" x="0" y="0" width="300px" height="300px" class="logo-background-square"></rect><!----><defs data-v-29081953=""><linearGradient data-v-29081953="" gradientTransform="rotate(25)" id="d0b26047-49e5-41cb-880a-fb004af0cddd" x1="0%" y1="0%" x2="100%" y2="0%"><stop data-v-29081953="" offset="0%" stop-color="#F00079" stop-opacity="1"></stop><stop data-v-29081953="" offset="100%" stop-color="#F2A041" stop-opacity="1"></stop></linearGradient></defs><g data-v-29081953="" id="e3c439d4-94dc-4778-8cdd-91c033db49ca" fill="url(#d0b26047-49e5-41cb-880a-fb004af0cddd)" stroke="none" transform="matrix(2.2346114845687657,0,0,2.2346114845687657,38.26981802560566,38.27077581807764)"><path d="M99.154 60.154c-.307 6.914-7.924 11.564-9.791 18.098-1.846 6.451-2.76 16.438-11.053 16.036-3.406-.167-7.979 1.371-10.479-1.433-2.151-2.41-2.396-6.486-3.437-9.387-1.188-3.306-.91-6.867-2.75-10.039-.666-1.152-2.576-2.843-2.816-4.103 0 0-1.559-6.017-2.223-7.347-.871-1.75-1.682-2.846-1.437-5.033.196-1.764 1.913-3.271 2.071-4.576.236-1.949-2.266-2.804-1.803-4.782 2.041-.363 2.779.679 3.916 1.976.676.772.401 1.024 1.316 1.667.504.353 1.296.125 1.891.619 1.979 1.643 2.533 5.985 3.145 8.308.423 1.604 1.277 3.159 1.615 4.806.377 1.842.188 3.375 1.547 4.873 4.021 4.434 4.174-2.429 4.174-5.104 0-4.029-2.021-19.623 3.859-19.505.031-1.577-1.356-7.299 1.873-6.613 2.134.453 1.635 5.014.939 6.374 5.487.49 3.229 14.105 2.73 17.695-.256 1.858-3.047 8.285.904 8.463 2.229.104 4.101-5.071 5.213-6.687.873-1.269 1.654-2.526 2.744-3.666 1.34-1.403 3.297-1.724 4.418-2.927.621-.665 1.48-4.09 3.271-2.594.393.331.176 4.627.163 4.881zM1.75 31.169c1.834 6.672 10.292 9.52 13.561 15.475 3.229 5.883 6.333 15.418 14.331 13.188 3.286-.918 8.086-.432 9.904-3.721 1.562-2.825.896-6.854 1.27-9.913.424-3.487-.634-6.898.454-10.399.395-1.271 1.884-3.341 1.839-4.623 0 0 .187-6.214.538-7.658.462-1.898 1.009-3.147.286-5.226-.583-1.675-2.592-2.767-3.036-4.003-.662-1.847 1.587-3.236.699-5.062-2.07.098-2.561 1.278-3.381 2.794-.488.903-.166 1.088-.916 1.917-.413.456-1.235.409-1.706 1.022-1.564 2.041-1.144 6.4-1.225 8.799-.057 1.657-.545 3.363-.509 5.043.04 1.878.565 3.333-.428 5.095-2.94 5.213-4.609-1.444-5.202-4.05-.893-3.93-2.378-19.582-8.087-18.165-.379-1.532-.294-7.419-3.292-6.035-1.981.916-.482 5.252.496 6.424-5.242 1.694-.021 14.47 1.259 17.861.662 1.755 4.809 7.403.994 8.454-2.151.592-5.122-4.04-6.564-5.367-1.133-1.042-2.174-2.097-3.488-2.966-1.62-1.072-3.598-.95-4.958-1.875-.752-.51-2.35-3.659-3.763-1.804-.308.407.857 4.55.924 4.795z"></path></g><!----></svg>